# 3ds Max Wavefront OBJ Exporter v0.97b - (c)2007 guruware
# File Created: 17.12.2014 03:27:47

mtllib meteor.mtl

#
# object Box003
#

v  -2.431261 -2.960380 0.285294
v  -2.431261 -2.559216 -0.435233
v  -1.631260 -2.559216 -0.435233
v  -1.631260 -2.960380 0.285294
v  -0.400000 -2.353299 -0.326338
v  -0.400000 -2.219826 0.288768
v  1.060533 -2.067408 0.126228
v  1.060533 -2.614631 0.709792
v  2.041433 -2.067408 0.126228
v  2.041433 -2.614631 0.709792
v  2.841433 -2.067408 0.126228
v  2.841433 -2.614631 0.709792
v  -2.179761 -2.441820 -1.506055
v  -1.200000 -2.046034 -1.134917
v  -0.400000 -2.046034 -1.134917
v  0.400000 -1.959740 -1.053996
v  1.200000 -1.959740 -1.053996
v  2.180900 -2.046034 -1.134917
v  -2.179761 -1.654639 -1.864604
v  -1.200000 -1.258853 -1.493466
v  -0.400000 -1.258853 -1.493466
v  0.400000 -1.172558 -1.412545
v  1.200000 -1.172558 -1.412545
v  2.180900 -1.258853 -1.493466
v  -2.467917 -0.844663 -3.372939
v  -1.667917 -0.844663 -3.372939
v  -0.400000 -0.770066 -2.659281
v  0.400000 -0.683771 -2.578361
v  1.674328 -0.649471 -2.787884
v  2.474328 -0.649471 -2.787884
v  -2.467917 -0.297439 -3.956504
v  -1.667917 -0.297439 -3.956504
v  -0.400000 -0.222843 -3.242845
v  0.400000 -0.136548 -3.161924
v  1.674328 -0.102248 -3.371448
v  2.474328 -0.102248 -3.371448
v  -1.991499 -0.178128 3.780151
v  -1.191499 -0.178128 3.780151
v  -1.191499 0.369094 3.196588
v  -1.991499 0.369095 3.196588
v  -0.400000 0.363014 3.596632
v  -0.400000 0.836786 2.665087
v  1.060533 -0.031791 4.017656
v  1.060533 0.641638 3.552438
v  1.601329 -0.282046 3.782985
v  1.601329 0.265177 3.199421
v  2.401328 -0.282046 3.782985
v  2.401328 0.265177 3.199421
v  -0.940000 1.268617 1.973317
v  -1.740000 1.268617 1.973317
v  -0.400000 1.591196 2.275808
v  0.400000 1.591196 2.275808
v  1.200000 1.464990 2.157461
v  1.740796 1.214736 1.922791
v  -0.940000 1.815840 1.389753
v  -1.740000 1.815840 1.389753
v  -0.400000 2.012214 1.573898
v  0.400000 2.012214 1.573898
v  1.200000 2.012214 1.573898
v  1.740796 1.761959 1.339227
v  -1.228156 2.076839 0.468177
v  -2.028156 2.076839 0.468177
v  -0.400000 2.159212 1.189126
v  0.400000 2.159212 1.189126
v  1.493428 2.072618 0.866238
v  2.034224 1.822363 0.631568
v  -1.228156 2.624063 -0.115387
v  -2.028156 2.624063 -0.115387
v  -0.400000 2.499247 0.411277
v  0.400000 2.499247 0.411277
v  1.493428 2.619841 0.282674
v  2.034224 2.369586 0.048004
v  -2.144350 -1.927918 1.253460
v  -2.944350 -1.927918 1.253460
v  -0.400000 -1.636262 0.835991
v  1.060533 -2.031066 1.257015
v  2.041433 -2.031066 1.257015
v  2.841433 -2.031067 1.257015
v  -2.144350 -1.878992 1.906104
v  -2.944350 -1.878992 1.906104
v  -0.400000 -1.587335 1.488636
v  1.060532 -1.982140 1.909659
v  1.860533 -1.982140 1.909659
v  2.660532 -1.982140 1.909659
v  -1.451499 -1.348539 2.403523
v  -2.251499 -1.348539 2.403523
v  -0.400000 -1.003771 2.035859
v  1.060532 -1.398576 2.456882
v  1.860533 -1.398576 2.456882
v  2.660532 -1.398576 2.456882
v  -1.191499 -0.761692 3.232928
v  -1.991499 -0.761692 3.232928
v  -0.400000 -0.220550 3.049408
v  1.060533 -0.615355 3.470433
v  1.601329 -0.865610 3.235762
v  2.401328 -0.865610 3.235763
v  2.841433 -1.483844 0.673451
v  3.209062 -1.222512 -0.362679
v  3.209062 -0.675289 -0.946243
v  2.474328 -0.065907 -2.240661
v  2.474328 0.481316 -2.824225
v  2.660532 -1.434917 1.326096
v  3.028162 -0.492889 0.321507
v  3.028162 0.054334 -0.262057
v  2.293427 0.722151 -0.974224
v  2.293427 1.269374 -1.557788
v  3.053975 -0.851353 1.873318
v  2.393442 0.090675 0.868730
v  2.000000 0.637898 0.285166
v  2.293427 1.305715 -0.427001
v  2.293427 1.852939 -1.010565
v  2.794770 -0.318387 2.652198
v  2.393442 0.674239 1.415954
v  2.000000 1.221462 0.832389
v  2.293428 1.489054 0.319015
v  2.293428 2.036277 -0.264549
v  1.674328 0.481316 -2.824225
v  0.400000 1.047960 -3.255554
v  -0.400000 0.961666 -3.336475
v  -1.667917 0.286125 -3.409281
v  -2.467917 0.286125 -3.409281
v  1.493428 1.269374 -1.557788
v  0.400000 1.749724 -2.070037
v  -0.400000 1.749724 -2.070037
v  -2.181007 1.523081 -1.721900
v  -2.981007 1.523081 -1.721900
v  1.493428 1.852939 -1.010565
v  0.400000 1.732344 -0.881962
v  -0.400000 1.732344 -0.881962
v  -1.488156 2.053534 -1.224481
v  -2.288156 2.053534 -1.224481
v  1.493428 2.036277 -0.264549
v  0.400000 1.915683 -0.135946
v  -0.400000 1.915683 -0.135946
v  -1.488156 2.236873 -0.478466
v  -2.288156 2.236873 -0.478466
v  -2.467917 -0.261098 -2.825716
v  -2.000000 -0.675289 -0.946243
v  -2.000000 -1.222512 -0.362679
v  -2.944350 -1.380696 0.669896
v  -2.981007 0.975858 -1.138336
v  -2.692851 0.107446 -0.212253
v  -2.692851 -0.439777 0.371311
v  -2.944350 -1.331769 1.322540
v  -2.288156 1.506310 -0.640917
v  -2.000000 0.637898 0.285166
v  -2.000000 0.090675 0.868730
v  -2.251499 -0.801316 1.819959
v  -2.288156 1.689649 0.105098
v  -1.740000 1.025088 0.648245
v  -1.740000 0.477865 1.231809
v  -1.991499 -0.214470 2.649365
# 152 vertices

vn -0.000000 -0.873708 -0.486450
vn 0.109244 -0.912843 -0.393425
vn 0.065004 -0.853506 -0.517012
vn 0.140248 -0.903482 -0.405032
vn 0.253041 -0.957821 -0.136195
vn 0.288812 -0.954951 0.068236
vn 0.043409 -0.917512 -0.395332
vn -0.000000 -0.729455 -0.684029
vn -0.011145 -0.921947 -0.387155
vn -0.000000 -0.898272 -0.439440
vn 0.000000 -0.729455 -0.684029
vn 0.476297 -0.752418 -0.454981
vn 0.182691 -0.673493 -0.716262
vn 0.102674 -0.706757 -0.699966
vn 0.117607 -0.769920 -0.627209
vn -0.049405 -0.822262 -0.566961
vn -0.098473 -0.872085 -0.479345
vn 0.428226 -0.666846 -0.609867
vn 0.244195 -0.714635 -0.655489
vn 0.074605 -0.715560 -0.694556
vn 0.067445 -0.719556 -0.691151
vn -0.045703 -0.719847 -0.692626
vn -0.119681 -0.703160 -0.700887
vn 0.000000 -0.807803 -0.589453
vn 0.198855 -0.812542 -0.547934
vn 0.197426 -0.850047 -0.488306
vn 0.040626 -0.843877 -0.534996
vn -0.030097 -0.840823 -0.540473
vn -0.020466 -0.831101 -0.555745
vn 0.177328 -0.717894 -0.673188
vn 0.283868 -0.699448 -0.655890
vn 0.022098 -0.729277 -0.683862
vn -0.044159 -0.728744 -0.683361
vn 0.000000 0.729455 0.684029
vn -0.097950 0.763830 0.637941
vn -0.011320 0.746766 0.664991
vn 0.000000 0.766802 0.641884
vn -0.301148 0.818174 0.489798
vn -0.015302 0.657316 0.753459
vn 0.344501 0.581277 0.737181
vn 0.294477 0.681604 0.669850
vn 0.278910 0.700508 0.656885
vn 0.354189 0.702520 0.617264
vn 0.000000 0.761904 0.647690
vn -0.322628 0.760562 0.563434
vn 0.000000 0.770801 0.637076
vn -0.255347 0.717104 0.648505
vn 0.004927 0.775714 0.631065
vn 0.400697 0.710031 0.579049
vn 0.470632 0.668097 0.576326
vn -0.247526 0.828921 0.501618
vn 0.000000 0.880478 0.474086
vn -0.247253 0.857327 0.451504
vn 0.028870 0.909679 0.414307
vn 0.260080 0.876717 0.404631
vn 0.523171 0.748557 0.407374
vn -0.164911 0.853470 0.494362
vn 0.000000 0.857928 0.513770
vn -0.208931 0.904004 0.372993
vn 0.066321 0.912812 0.402959
vn 0.396956 0.795277 0.458214
vn 0.531005 0.700788 0.476370
vn -0.127207 0.723529 0.678472
vn -0.219014 0.861535 0.458029
vn -0.028176 0.915912 0.400389
vn 0.351963 0.727792 0.588592
vn 0.535683 0.615966 0.577607
vn 0.000000 -0.684029 0.729455
vn 0.171732 -0.642811 0.746527
vn 0.110983 -0.895395 0.431220
vn 0.000000 -0.921939 0.387335
vn 0.050192 -0.683167 0.728536
vn -0.033026 -0.882576 0.469009
vn -0.187064 -0.671954 0.716578
vn -0.180531 -0.894649 0.408671
vn -0.000000 -0.684029 0.729455
vn -0.000000 -0.902104 0.431519
vn -0.000000 -0.885733 0.464195
vn 0.097198 -0.904127 0.416060
vn 0.000000 -0.948515 0.316732
vn -0.055984 -0.915183 0.399131
vn -0.170444 -0.883362 0.436600
vn 0.000000 -0.902104 0.431519
vn -0.000000 -0.914955 0.403557
vn 0.263455 -0.819502 0.508927
vn -0.000000 -0.735303 0.677738
vn 0.001960 -0.756560 0.653921
vn -0.196584 -0.732552 0.651707
vn -0.000000 -0.759138 0.650930
vn 0.000000 -0.752472 0.658624
vn 0.316040 -0.749411 0.581809
vn -0.000000 -0.758899 0.651208
vn 0.090412 -0.747310 0.658296
vn -0.200749 -0.714519 0.670196
vn -0.025815 -0.761863 0.647224
vn -0.000000 -0.764695 0.644393
vn 0.302497 -0.651982 0.695280
vn 0.045580 -0.683318 0.728697
vn -0.227913 -0.666026 0.710257
vn 1.000000 0.000000 -0.000000
vn 0.962455 -0.267944 -0.043437
vn 0.976602 -0.043725 0.210561
vn 0.977419 0.154141 0.144542
vn 0.688963 -0.457914 -0.561822
vn 0.960781 -0.264996 -0.081712
vn 0.702180 -0.397933 -0.590418
vn 0.935698 -0.021694 -0.352135
vn 0.995525 -0.064641 0.068934
vn 0.997644 0.019619 -0.065746
vn 0.998386 0.041426 0.038846
vn 0.999485 0.032093 -0.000209
vn 0.986993 -0.129348 0.095469
vn 0.895681 0.257850 0.362310
vn 0.874581 0.466607 0.131860
vn 0.942652 0.284234 -0.174982
vn 0.997743 0.048981 0.045930
vn 0.997431 -0.020230 -0.068714
vn 0.894207 -0.239818 0.377996
vn 0.907458 0.412550 -0.079515
vn 0.933635 0.276254 0.228054
vn 0.994562 0.087627 0.056291
vn 1.000000 -0.000000 -0.000000
vn 0.930089 0.199774 0.308260
vn 0.927398 -0.077374 0.365987
vn 0.884670 0.465599 -0.024014
vn 0.975574 0.188954 0.112035
vn 0.959374 -0.007478 0.282039
vn 0.976524 0.157129 0.147344
vn 0.937555 0.308574 0.160538
vn 0.767773 0.550545 0.327758
vn 0.886289 0.372930 0.274617
vn 0.883064 0.210301 0.419490
vn 0.869796 0.359922 0.337508
vn 0.000000 0.684029 -0.729455
vn 0.120251 0.533724 -0.837065
vn 0.252654 0.753949 -0.606405
vn 0.000000 0.769768 -0.638324
vn -0.019909 -0.078784 -0.996693
vn 0.187083 0.534672 -0.824091
vn 0.154961 0.051382 -0.986583
vn -0.056938 0.468362 -0.881700
vn 0.151971 0.676084 -0.720982
vn 0.010618 0.652097 -0.758061
vn 0.000000 0.752824 -0.658222
vn 0.169202 0.828609 -0.533646
vn 0.000000 0.776172 -0.630521
vn 0.234667 0.935791 -0.263111
vn -0.037804 0.944311 -0.326874
vn -0.085215 0.762369 -0.641508
vn 0.000000 0.763239 -0.646116
vn -0.075741 0.858755 -0.506757
vn 0.000000 0.863184 -0.504889
vn 0.015924 0.981585 -0.190361
vn 0.158656 0.979883 -0.121067
vn 0.060593 0.928150 -0.367240
vn 0.000000 0.832592 -0.553887
vn -0.077493 0.862748 -0.499661
vn 0.000000 0.891096 -0.453815
vn 0.209363 0.832351 -0.513186
vn 0.173636 0.836655 -0.519480
vn 0.000000 0.887450 -0.460904
vn -0.097350 0.680780 -0.725990
vn 0.000001 0.684030 -0.729454
vn -0.079845 0.681845 -0.727126
vn 0.230449 0.665618 -0.709821
vn 0.292315 0.589283 -0.753191
vn -1.000000 0.000000 -0.000000
vn -0.994757 -0.049241 0.089629
vn -0.981051 -0.192716 0.020002
vn -0.993417 -0.083560 -0.078356
vn -0.989011 0.032936 0.144124
vn -0.946018 -0.322430 -0.033006
vn -0.982305 0.127761 -0.136942
vn -0.930694 0.119515 -0.345723
vn -0.949944 -0.220482 -0.221347
vn -0.831051 0.515451 -0.208963
vn -0.936732 -0.305840 -0.170281
vn -0.991686 -0.100301 -0.080613
vn -0.965090 0.096139 0.243636
vn -0.973978 0.165325 0.155030
vn -0.975538 -0.006222 0.219741
vn -0.990377 0.138298 -0.005152
vn -0.924635 0.346916 0.157157
vn -0.875725 0.352188 0.330256
vn -0.919843 0.192253 0.341947
vn -0.891431 0.330558 0.309972
vn -0.820458 0.348775 0.452995
vn -0.828063 0.469633 0.306197
vn -0.861373 0.425588 0.277329
vn -0.880809 0.345376 0.323868
vn -0.961913 -0.132938 0.238852
vn -0.981659 0.139066 0.130406
vn -0.961275 -0.022529 0.274667
vn -0.963730 0.254689 0.079737
vn -0.987606 0.154839 0.025666
vn -0.992901 0.086765 0.081362
vn -0.897183 0.290518 0.332660
vn -0.898050 0.320883 0.300900
vn -0.982272 -0.076305 0.171230
vn -0.996335 0.058507 -0.062392
vn -0.996847 0.054273 -0.057877
# 201 vertex normals

vt 1.000000 0.000000 0.000000
vt 1.000000 0.200000 0.000000
vt 0.800000 0.200000 0.000000
vt 0.800000 0.000000 0.000000
vt 0.600000 0.200000 0.000000
vt 0.600000 0.000000 0.000000
vt 0.400000 0.200000 0.000000
vt 0.400000 0.000000 0.000000
vt 0.200000 0.200000 0.000000
vt 0.200000 0.000000 0.000000
vt 0.000000 0.200000 0.000000
vt 0.000000 0.000000 0.000000
vt 1.000000 0.400000 0.000000
vt 0.800000 0.400000 0.000000
vt 0.600000 0.400000 0.000000
vt 0.400000 0.400000 0.000000
vt 0.200000 0.400000 0.000000
vt 0.000000 0.400000 0.000000
vt 1.000000 0.600000 0.000000
vt 0.800000 0.600000 0.000000
vt 0.600000 0.600000 0.000000
vt 0.400000 0.600000 0.000000
vt 0.200000 0.600000 0.000000
vt 0.000000 0.600000 0.000000
vt 1.000000 0.800000 0.000000
vt 0.800000 0.800000 0.000000
vt 0.600000 0.800000 0.000000
vt 0.400000 0.800000 0.000000
vt 0.200000 0.800000 0.000000
vt 0.000000 0.800000 0.000000
vt 1.000000 1.000000 0.000000
vt 0.800000 1.000000 0.000000
vt 0.600000 1.000000 0.000000
vt 0.400000 1.000000 0.000000
vt 0.200000 1.000000 0.000000
vt 0.000000 1.000000 0.000000
# 36 texture coords

g Box003
usemtl 01___Default
s 2
f 1/1/1 2/2/2 3/3/3 4/4/4 
f 4/4/4 3/3/3 5/5/5 6/6/6 
f 6/6/6 5/5/5 7/7/7 8/8/8 
f 8/8/8 7/7/7 9/9/9 10/10/8 
f 10/10/8 9/9/9 11/11/10 12/12/11 
f 2/2/2 13/13/12 14/14/13 3/3/3 
f 3/3/3 14/14/13 15/15/14 5/5/5 
f 5/5/5 15/15/14 16/16/15 7/7/7 
f 7/7/7 16/16/15 17/17/16 9/9/9 
f 9/9/9 17/17/16 18/18/17 11/11/10 
f 13/13/12 19/19/18 20/20/19 14/14/13 
f 14/14/13 20/20/19 21/21/20 15/15/14 
f 15/15/14 21/21/20 22/22/21 16/16/15 
f 16/16/15 22/22/21 23/23/22 17/17/16 
f 17/17/16 23/23/22 24/24/23 18/18/17 
f 19/19/18 25/25/24 26/26/25 20/20/19 
f 20/20/19 26/26/25 27/27/26 21/21/20 
f 21/21/20 27/27/26 28/28/27 22/22/21 
f 22/22/21 28/28/27 29/29/28 23/23/22 
f 23/23/22 29/29/28 30/30/29 24/24/23 
f 25/25/24 31/31/11 32/32/30 26/26/25 
f 26/26/25 32/32/30 33/33/31 27/27/26 
f 27/27/26 33/33/31 34/34/32 28/28/27 
f 28/28/27 34/34/32 35/35/33 29/29/28 
f 29/29/28 35/35/33 36/36/11 30/30/29 
s 4
f 37/12/34 38/10/35 39/9/36 40/11/37 
f 38/10/35 41/8/38 42/7/39 39/9/36 
f 41/8/38 43/6/40 44/5/41 42/7/39 
f 43/6/40 45/4/42 46/3/43 44/5/41 
f 45/4/42 47/1/34 48/2/44 46/3/43 
f 40/11/37 39/9/36 49/17/45 50/18/46 
f 39/9/36 42/7/39 51/16/47 49/17/45 
f 42/7/39 44/5/41 52/15/48 51/16/47 
f 44/5/41 46/3/43 53/14/49 52/15/48 
f 46/3/43 48/2/44 54/13/50 53/14/49 
f 50/18/46 49/17/45 55/23/51 56/24/52 
f 49/17/45 51/16/47 57/22/53 55/23/51 
f 51/16/47 52/15/48 58/21/54 57/22/53 
f 52/15/48 53/14/49 59/20/55 58/21/54 
f 53/14/49 54/13/50 60/19/56 59/20/55 
f 56/24/52 55/23/51 61/29/57 62/30/58 
f 55/23/51 57/22/53 63/28/59 61/29/57 
f 57/22/53 58/21/54 64/27/60 63/28/59 
f 58/21/54 59/20/55 65/26/61 64/27/60 
f 59/20/55 60/19/56 66/25/62 65/26/61 
f 62/30/58 61/29/57 67/35/63 68/36/34 
f 61/29/57 63/28/59 69/34/64 67/35/63 
f 63/28/59 64/27/60 70/33/65 69/34/64 
f 64/27/60 65/26/61 71/32/66 70/33/65 
f 65/26/61 66/25/62 72/31/67 71/32/66 
s 8
f 1/12/68 4/10/69 73/9/70 74/11/71 
f 4/10/69 6/8/72 75/7/73 73/9/70 
f 6/8/72 8/6/74 76/5/75 75/7/73 
f 8/6/74 10/4/76 77/3/77 76/5/75 
f 10/4/76 12/1/68 78/2/78 77/3/77 
f 74/11/71 73/9/70 79/17/79 80/18/80 
f 73/9/70 75/7/73 81/16/81 79/17/79 
f 75/7/73 76/5/75 82/15/82 81/16/81 
f 76/5/75 77/3/77 83/14/83 82/15/82 
f 77/3/77 78/2/78 84/13/84 83/14/83 
f 80/18/80 79/17/79 85/23/85 86/24/86 
f 79/17/79 81/16/81 87/22/87 85/23/85 
f 81/16/81 82/15/82 88/21/88 87/22/87 
f 82/15/82 83/14/83 89/20/89 88/21/88 
f 83/14/83 84/13/84 90/19/90 89/20/89 
f 86/24/86 85/23/85 91/29/91 92/30/92 
f 85/23/85 87/22/87 93/28/93 91/29/91 
f 87/22/87 88/21/88 94/27/94 93/28/93 
f 88/21/88 89/20/89 95/26/95 94/27/94 
f 89/20/89 90/19/90 96/25/96 95/26/95 
f 92/30/92 91/29/91 38/35/97 37/36/76 
f 91/29/91 93/28/93 41/34/98 38/35/97 
f 93/28/93 94/27/94 43/33/99 41/34/98 
f 94/27/94 95/26/95 45/32/76 43/33/99 
f 95/26/95 96/25/96 47/31/76 45/32/76 
s 16
f 12/12/100 11/10/101 97/9/102 78/11/103 
f 11/10/101 18/8/104 98/7/105 97/9/102 
f 18/8/104 24/6/106 99/5/107 98/7/105 
f 24/6/106 30/4/108 100/3/109 99/5/107 
f 30/4/108 36/1/100 101/2/110 100/3/109 
f 78/11/103 97/9/102 102/17/111 84/18/112 
f 97/9/102 98/7/105 103/16/113 102/17/111 
f 98/7/105 99/5/107 104/15/114 103/16/113 
f 99/5/107 100/3/109 105/14/115 104/15/114 
f 100/3/109 101/2/110 106/13/116 105/14/115 
f 84/18/112 102/17/111 107/23/117 90/24/118 
f 102/17/111 103/16/113 108/22/119 107/23/117 
f 103/16/113 104/15/114 109/21/120 108/22/119 
f 104/15/114 105/14/115 110/20/121 109/21/120 
f 105/14/115 106/13/116 111/19/122 110/20/121 
f 90/24/118 107/23/117 112/29/123 96/30/124 
f 107/23/117 108/22/119 113/28/125 112/29/123 
f 108/22/119 109/21/120 114/27/126 113/28/125 
f 109/21/120 110/20/121 115/26/127 114/27/126 
f 110/20/121 111/19/122 116/25/128 115/26/127 
f 96/30/124 112/29/123 48/35/129 47/36/100 
f 112/29/123 113/28/125 54/34/130 48/35/129 
f 113/28/125 114/27/126 60/33/131 54/34/130 
f 114/27/126 115/26/127 66/32/132 60/33/131 
f 115/26/127 116/25/128 72/31/133 66/32/132 
s 32
f 36/12/134 35/10/135 117/9/136 101/11/137 
f 35/10/135 34/8/138 118/7/139 117/9/136 
f 34/8/138 33/6/140 119/5/141 118/7/139 
f 33/6/140 32/4/142 120/3/143 119/5/141 
f 32/4/142 31/1/134 121/2/144 120/3/143 
f 101/11/137 117/9/136 122/17/145 106/18/146 
f 117/9/136 118/7/139 123/16/147 122/17/145 
f 118/7/139 119/5/141 124/15/148 123/16/147 
f 119/5/141 120/3/143 125/14/149 124/15/148 
f 120/3/143 121/2/144 126/13/150 125/14/149 
f 106/18/146 122/17/145 127/23/151 111/24/152 
f 122/17/145 123/16/147 128/22/153 127/23/151 
f 123/16/147 124/15/148 129/21/154 128/22/153 
f 124/15/148 125/14/149 130/20/155 129/21/154 
f 125/14/149 126/13/150 131/19/156 130/20/155 
f 111/24/152 127/23/151 132/29/157 116/30/158 
f 127/23/151 128/22/153 133/28/151 132/29/157 
f 128/22/153 129/21/154 134/27/159 133/28/151 
f 129/21/154 130/20/155 135/26/160 134/27/159 
f 130/20/155 131/19/156 136/25/161 135/26/160 
f 116/30/158 132/29/157 71/35/162 72/36/163 
f 132/29/157 133/28/151 70/34/164 71/35/162 
f 133/28/151 134/27/159 69/33/165 70/34/164 
f 134/27/159 135/26/160 67/32/166 69/33/165 
f 135/26/160 136/25/161 68/31/134 67/32/166 
s 64
f 31/12/167 25/10/168 137/9/169 121/11/170 
f 25/10/168 19/8/171 138/7/172 137/9/169 
f 19/8/171 13/6/173 139/5/174 138/7/172 
f 13/6/173 2/4/175 140/3/176 139/5/174 
f 2/4/175 1/1/177 74/2/178 140/3/176 
f 121/11/170 137/9/169 141/17/179 126/18/180 
f 137/9/169 138/7/172 142/16/181 141/17/179 
f 138/7/172 139/5/174 143/15/182 142/16/181 
f 139/5/174 140/3/176 144/14/183 143/15/182 
f 140/3/176 74/2/178 80/13/184 144/14/183 
f 126/18/180 141/17/179 145/23/185 131/24/186 
f 141/17/179 142/16/181 146/22/187 145/23/185 
f 142/16/181 143/15/182 147/21/188 146/22/187 
f 143/15/182 144/14/183 148/20/189 147/21/188 
f 144/14/183 80/13/184 86/19/190 148/20/189 
f 131/24/186 145/23/185 149/29/191 136/30/192 
f 145/23/185 146/22/187 150/28/193 149/29/191 
f 146/22/187 147/21/188 151/27/194 150/28/193 
f 147/21/188 148/20/189 152/26/195 151/27/194 
f 148/20/189 86/19/190 92/25/196 152/26/195 
f 136/30/192 149/29/191 62/35/197 68/36/198 
f 149/29/191 150/28/193 56/34/199 62/35/197 
f 150/28/193 151/27/194 50/33/200 56/34/199 
f 151/27/194 152/26/195 40/32/201 50/33/200 
f 152/26/195 92/25/196 37/31/167 40/32/201 
# 150 polygons

